<svg id="Layer_1" data-name="Layer 1" xmlns="http://www.w3.org/2000/svg" viewBox="0 0 403.74 117.75"><defs><style>.cls-1{fill:#001c54;}.cls-2{fill:#fff;}</style></defs><title>ox_full</title><path class="cls-1" d="M143.88,39.46a7.6,7.6,0,0,1-5.61,2,8,8,0,0,1-5.7-2.09c-1.85-1.85-1.79-4.19-1.79-6.22V20.55h2.77V33.49c0,1.57-.06,3.11,1.17,4.34a5.07,5.07,0,0,0,3.63,1.29,4.67,4.67,0,0,0,3.39-1.26c1.39-1.39,1.26-3,1.26-6.44V20.55h2.71V31C145.73,34.81,145.85,37.49,143.88,39.46Z" transform="translate(-6.54 -5.43)"/><path class="cls-1" d="M165.53,41.09l-9.7-16.36,0.06,16.36h-2.53V20.55h2.74L165.81,37l-0.06-16.42h2.52V41.09h-2.74Z" transform="translate(-6.54 -5.43)"/><path class="cls-1" d="M176.56,41.09V20.55h2.77V41.09h-2.77Z" transform="translate(-6.54 -5.43)"/><path class="cls-1" d="M194.73,41.09h-3L184.6,20.55h2.86l5.82,17.71,6-17.71h2.68Z" transform="translate(-6.54 -5.43)"/><path class="cls-1" d="M207.32,41.09V20.55h11.37v2.28H210V29.3h8.13v2.22H210v7.24h8.9v2.34H207.32Z" transform="translate(-6.54 -5.43)"/><path class="cls-1" d="M236.51,41.09l-2.37-5.36c-1.42-3.17-2.1-3.45-4.87-3.45H228v8.81h-2.71V20.55h4.56c2.74,0,4.87,0,6.53,1.63a5.57,5.57,0,0,1,1.6,4.1,5,5,0,0,1-1.26,3.54,5.44,5.44,0,0,1-3.3,1.63,2.87,2.87,0,0,1,1.76.83,9.66,9.66,0,0,1,1.6,2.86l2.65,5.94h-2.9Zm-2.19-17.28c-1.11-1.11-2.56-1.08-4.22-1.08H228V30.1h1c2,0,4,.06,5.27-1.23a3.68,3.68,0,0,0,1-2.59A3.57,3.57,0,0,0,234.32,23.81Z" transform="translate(-6.54 -5.43)"/><path class="cls-1" d="M250,41.52a10,10,0,0,1-6.31-2.22L245,37.4a8.84,8.84,0,0,0,4.87,1.76c2.52,0,4-1.51,4-3.39,0-2.25-2.52-3.36-4.73-4.43-2.62-1.26-4.88-2.62-4.88-5.64,0-3.27,2.65-5.54,6.44-5.54a8,8,0,0,1,5.85,2.09L255.16,24a6.84,6.84,0,0,0-4.28-1.54c-2.25,0-3.85,1.11-3.85,3s1.82,2.66,3.85,3.71c1.82,0.92,5.85,2.33,5.85,6.36C256.73,38.91,254.24,41.52,250,41.52Z" transform="translate(-6.54 -5.43)"/><path class="cls-1" d="M263.23,41.09V20.55H266V41.09h-2.77Z" transform="translate(-6.54 -5.43)"/><path class="cls-1" d="M280.15,22.83V41.09h-2.77V22.83h-6V20.55h14.82v2.28h-6Z" transform="translate(-6.54 -5.43)"/><path class="cls-1" d="M298.12,33v8.13h-2.74V33l-6.5-12.41h3l5,9.67,4.91-9.67h2.79Z" transform="translate(-6.54 -5.43)"/><path class="cls-1" d="M327.6,41.49c-5.42,0-9.33-4.4-9.33-10.63s3.88-10.72,9.49-10.72,9.3,4.37,9.3,10.57C337.06,37.12,333.21,41.49,327.6,41.49Zm0-19c-3.91,0-6.47,3.3-6.47,8.32s2.87,8.32,6.62,8.32c4.28,0,6.5-3.67,6.5-8.5S331.49,22.49,327.57,22.49Z" transform="translate(-6.54 -5.43)"/><path class="cls-1" d="M346.37,22.83V29.3h7.88v2.22h-7.88v9.58h-2.74V20.55h11.12v2.28h-8.38Z" transform="translate(-6.54 -5.43)"/><path class="cls-1" d="M172.43,81.47c0,13.16-10.13,22.69-22.81,22.69-12.9,0-22.81-9.65-22.81-22.2,0-13.15,10.15-22.68,22.81-22.68,12.92,0,22.81,9.64,22.81,22.2h0Zm-7.34.24c0-11.95-5.68-20-15.46-20-10.61,0-15.44,9.77-15.44,20,0,12,5.67,20.07,15.44,20.07,10.63,0,15.46-9.79,15.46-20.07h0Z" transform="translate(-6.54 -5.43)"/><path class="cls-1" d="M311.69,81.47c0,13.16-10.14,22.69-22.81,22.69-12.9,0-22.81-9.65-22.81-22.2,0-13.15,10.14-22.68,22.81-22.68,12.91,0,22.81,9.64,22.81,22.2h0Zm-7.35.24c0-11.95-5.67-20-15.45-20-10.62,0-15.45,9.77-15.45,20,0,12,5.67,20.07,15.45,20.07,10.62,0,15.45-9.79,15.45-20.07h0Z" transform="translate(-6.54 -5.43)"/><path class="cls-1" d="M329.31,81.83h5.43c8.21,0,9.9-5,9.9-10a8.55,8.55,0,0,0-5.43-8.44,16.37,16.37,0,0,0-6.64-1h-3.26V81.83h0Zm9.9,7.15c-2.54-3.63-3.5-4.73-6.64-4.73h-3.26v14.5c0,1.21.36,1.81,1.81,2.06l5,1v1.7H316.53v-1.7l4.46-1c1.45-.37,1.8-0.84,1.8-2.06v-34a1.83,1.83,0,0,0-1.8-2.06l-4.46-1V60h19.06a25.83,25.83,0,0,1,9.05,1.21A11.45,11.45,0,0,1,352,71.71c0,5.32-4,9.76-10.62,11.34v0.25c1.33,0.6,2.05,1.46,6.76,7.62l6,7.84a4.83,4.83,0,0,0,3.37,2.3l4.11,0.72v1.7H351.16c-1.21,0-1.82-.37-2.9-1.83l-9-12.67h0Z" transform="translate(-6.54 -5.43)"/><path class="cls-1" d="M254.13,75h2.05V89.35h-2.05l-0.85-4.13A2.52,2.52,0,0,0,250.51,83H240V98.76c0,1.21.36,1.81,1.8,2.06l5,1v1.7H227.22v-1.7l4.46-1c1.46-.37,1.82-0.84,1.82-2.06v-34a1.84,1.84,0,0,0-1.82-2.06l-4.46-1V60h32.95V70.86h-2l-1.7-6.13a2.72,2.72,0,0,0-2.9-2.3H240V80.62h10.49a2.49,2.49,0,0,0,2.77-2.13L254.13,75h0Z" transform="translate(-6.54 -5.43)"/><path class="cls-1" d="M365.15,103.48v-1.7l4.46-1c1.45-.37,1.81-0.84,1.81-2.06v-34a1.84,1.84,0,0,0-1.81-2.06l-4.46-1V60h20.4c5.55,0,9.53.72,12.78,2.18C406.54,65.94,410.28,74,410.28,82c0,7.75-2.89,15-10.25,18.86-3.38,1.81-8.08,2.67-14.24,2.67H365.15Zm12.68-41.05V99.11c0,1.58.36,2,1.93,2h5.31c5.07,0,8.81-.61,11.46-2.55,4.47-3.27,6.4-8.92,6.4-16.43,0-7.35-1.93-14.33-8-17.84-2.55-1.45-5.79-1.81-10.86-1.81h-6.27Z" transform="translate(-6.54 -5.43)"/><path class="cls-1" d="M189.57,101.78v1.7H174v-1.7l3.86-.84a5.62,5.62,0,0,0,3.39-2l13-16.66-13-17.59A5.48,5.48,0,0,0,178,62.55l-3.61-.85V60h19.19v1.69l-4.11.73c-1.32.24-1.2,0.6-.47,1.57l9.64,13.65h0.25l10-13.41c0.73-1,.73-1.45-0.36-1.69l-3.86-.85V60h15.56v1.69l-3.85.85A5.58,5.58,0,0,0,213,64.48L200.56,80.05l13.86,18.7a5.49,5.49,0,0,0,3.27,2.18l3.61,0.84v1.7H202.11v-1.7l4.12-.72c1.31-.25,1.19-0.61.48-1.58L196.2,84.75H196L185.22,99.48c-0.73,1-.84,1.21.48,1.46l3.87,0.84h0Z" transform="translate(-6.54 -5.43)"/><path class="cls-1" d="M55,48.55a4.32,4.32,0,0,0-1.91-4,6.55,6.55,0,0,0-3.29-.64H39.89V64H50.67c2.49,0,4,.56,4.09,2.8H55V48.55Z" transform="translate(-6.54 -5.43)"/><path class="cls-1" d="M56.72,48.55a4.32,4.32,0,0,1,1.91-4,6.55,6.55,0,0,1,3.29-.64h10V64H61c-2.49,0-4,.56-4.09,2.8H56.72V48.55Z" transform="translate(-6.54 -5.43)"/><path class="cls-1" d="M74.07,45.2V66.71H58.43l-0.21.53c-0.25.63-.71,1.21-2.34,1.21s-2.09-.58-2.34-1.21l-0.21-.53H37.7V45.2H36v0.56l-1.19-.37a1.33,1.33,0,1,0-.45,1.46L36,47.35V49l-1.18-.21a1.33,1.33,0,1,0-.27,1.51L36,50.55v1.68l-1.24-.05a1.33,1.33,0,1,0-.07,1.53L36,53.76v1.83l-1.28,0a1.32,1.32,0,1,0,.06,1.53l1.22,0V58.8L34.59,59a1.33,1.33,0,1,0,.26,1.51l1.16-.2V62l-1.57.48a1.32,1.32,0,0,0-.81-0.28,1.33,1.33,0,1,0,1.25,1.74L36,63.6v1.58l-1.75.76a1.33,1.33,0,1,0,.6,1.41l1.15-.5v1.56H52.27a3.84,3.84,0,0,0,3.6,1.74,3.84,3.84,0,0,0,3.61-1.74h16.3V45.2h-1.7Z" transform="translate(-6.54 -5.43)"/><ellipse class="cls-1" cx="38.67" cy="33.93" rx="5.93" ry="1.14"/><path class="cls-1" d="M53.38,30.87L50,33.28l0,0.24,0.81,0.37c0.16,0.08.16,0.21,0.08,0.29L48.67,36l-0.21,0-1.52-2.25a0.18,0.18,0,0,1,.12-0.32l1-.17V33l-2.65-3.74H45L42.34,33v0.26l1,0.17a0.18,0.18,0,0,1,.12.32L42,36l-0.21,0-2-1.81c-0.08-.08-0.08-0.21.08-0.29l0.81-.37,0-.24L37,30.87,36.76,31l2.09,6.4a19.17,19.17,0,0,1,6.36-.83,19.17,19.17,0,0,1,6.36.83L53.66,31Z" transform="translate(-6.54 -5.43)"/><ellipse class="cls-1" cx="49.31" cy="76.82" rx="5.93" ry="1.14"/><path class="cls-1" d="M64,73.76l-3.42,2.41,0,0.24,0.81,0.37c0.16,0.08.16,0.21,0.08,0.29L59.3,78.88l-0.21,0-1.52-2.24a0.18,0.18,0,0,1,.12-0.32l1-.17V75.87l-2.65-3.75H55.63L53,75.87v0.26l1,0.17a0.18,0.18,0,0,1,.12.32l-1.52,2.24-0.2,0-2-1.82c-0.08-.08-0.08-0.21.08-0.29l0.81-.37,0-.24-3.56-2.41-0.29.11,2.09,6.4a19.14,19.14,0,0,1,6.36-.83,19.14,19.14,0,0,1,6.36.83l2.09-6.4Z" transform="translate(-6.54 -5.43)"/><ellipse class="cls-1" cx="59.91" cy="33.93" rx="5.93" ry="1.14"/><path class="cls-1" d="M74.62,30.87l-3.42,2.41,0,0.24L72,33.89c0.16,0.08.16,0.21,0.08,0.29L69.91,36l-0.2,0-1.52-2.25a0.18,0.18,0,0,1,.12-0.32l1-.17V33l-2.65-3.74H66.23L63.58,33v0.26l1,0.17a0.18,0.18,0,0,1,.12.32L63.2,36,63,36l-2-1.84a0.17,0.17,0,0,1,.08-0.29l0.82-.34,0-.24-3.57-2.41L58,31l2.09,6.4a19.17,19.17,0,0,1,6.36-.83,19.17,19.17,0,0,1,6.36.83L74.91,31Z" transform="translate(-6.54 -5.43)"/><circle class="cls-1" cx="49.26" cy="8.23" r="1.22"/><circle class="cls-1" cx="84.19" cy="24.93" r="1.22" transform="translate(48.38 102.28) rotate(-87.02)"/><path class="cls-2" d="M42.42,47a1.8,1.8,0,0,1,1.29.39,1.27,1.27,0,0,1,.38.91,1.6,1.6,0,0,1-1.86,1.57H41.09V49.71c0.32,0,.36-0.06.36-0.54V47.72c0-.48,0-0.51-0.32-0.54V47h1.29ZM42.2,49.18c0,0.39.1,0.47,0.31,0.47a1,1,0,0,0,.77-1.2c0-1-.48-1.22-0.86-1.22a0.41,0.41,0,0,0-.19,0,0.43,0.43,0,0,0,0,.22v1.7Z" transform="translate(-6.54 -5.43)"/><path class="cls-2" d="M47.44,48.41a1.45,1.45,0,0,1-1.5,1.54,1.42,1.42,0,0,1-1.47-1.46A1.49,1.49,0,0,1,46,46.94,1.4,1.4,0,0,1,47.44,48.41Zm-2.15-.08c0,0.8.3,1.39,0.73,1.39s0.59-.37.59-1.17-0.32-1.38-.7-1.38S45.3,47.56,45.3,48.33Z" transform="translate(-6.54 -5.43)"/><path class="cls-2" d="M51.35,47v0.17c-0.34,0-.35,0-0.34.51l0,1.48c0,0.49,0,.5.34,0.54v0.17H50V49.71c0.33,0,.34,0,0.34-0.54V47.62h0l-0.85,2.22H49.22l-0.81-2.06h0l0,1a4.86,4.86,0,0,0,0,.73c0,0.16.12,0.2,0.4,0.23v0.17H47.69V49.71c0.21,0,.3-0.06.32-0.23s0-.37.07-0.77l0-.89c0-.56,0-0.61-0.35-0.64V47h1l0.77,1.75L50.27,47h1.08Z" transform="translate(-6.54 -5.43)"/><path class="cls-2" d="M52.79,49.18c0,0.48,0,.51.34,0.54v0.17H51.69V49.71c0.3,0,.34-0.06.34-0.54V47.72c0-.48,0-0.51-0.34-0.54V47h1.43v0.17c-0.31,0-.34.06-0.34,0.54v1.46Z" transform="translate(-6.54 -5.43)"/><path class="cls-2" d="M45.66,55.22H45.28l-1.64-2.09h0v0.81a7,7,0,0,0,0,.85c0,0.16.14,0.21,0.43,0.23v0.17H43V55a0.29,0.29,0,0,0,.33-0.23,7,7,0,0,0,0-.85V53.14a0.69,0.69,0,0,0-.1-0.51,0.42,0.42,0,0,0-.34-0.14V52.32h1l1.47,1.84h0V53.56a7.09,7.09,0,0,0,0-.85c0-.15-0.14-0.21-0.43-0.23V52.32h1.13v0.17a0.3,0.3,0,0,0-.36.23,6.84,6.84,0,0,0,0,.85v1.66Z" transform="translate(-6.54 -5.43)"/><path class="cls-2" d="M47.45,55.22l-0.88-2.31a0.46,0.46,0,0,0-.45-0.43V52.32h1.43v0.17l-0.15,0c-0.16,0-.16.06-0.12,0.21s0.43,1.12.59,1.55c0.14-.38.42-1.22,0.49-1.43s0.07-.32-0.13-0.34H48.11V52.32h1.07v0.17c-0.25,0-.31.05-0.49,0.46,0,0.06-.57,1.38-0.9,2.28H47.45Z" transform="translate(-6.54 -5.43)"/><path class="cls-2" d="M49.45,54.28a1,1,0,0,0,.79.75,0.39,0.39,0,0,0,.41-0.44,0.59,0.59,0,0,0-.44-0.53l-0.07,0a1,1,0,0,1-.77-0.87,0.93,0.93,0,0,1,1.06-.91,1.53,1.53,0,0,1,.41.05l0.23,0.06c0,0.17,0,.39.1,0.69l-0.2,0a0.7,0.7,0,0,0-.6-0.61,0.38,0.38,0,0,0-.38.39,0.58,0.58,0,0,0,.46.48l0.1,0a1,1,0,0,1,.76.93,1,1,0,0,1-1.12.94,1.64,1.64,0,0,1-.48-0.07l-0.28-.11c0-.2-0.09-0.44-0.15-0.74Z" transform="translate(-6.54 -5.43)"/><path class="cls-2" d="M43.69,59.79c0,0.48,0,.51.34,0.54V60.5H42.6V60.33c0.3,0,.34-0.06.34-0.54V58.33c0-.48,0-0.51-0.34-0.53V57.63H44V57.8c-0.3,0-.34.06-0.34,0.53v1.46Z" transform="translate(-6.54 -5.43)"/><path class="cls-2" d="M45.44,59.85a0.41,0.41,0,0,0,.09.38,0.73,0.73,0,0,0,.31,0,0.55,0.55,0,0,0,.42-0.13,1.16,1.16,0,0,0,.22-0.44l0.19,0c0,0.17-.12.63-0.16,0.77H44.32V60.33c0.34,0,.37-0.06.37-0.54V58.33c0-.48,0-0.51-0.33-0.53V57.63H45.8V57.8c-0.32,0-.35.06-0.35,0.53v1.52Z" transform="translate(-6.54 -5.43)"/><path class="cls-2" d="M47.91,59.85a0.4,0.4,0,0,0,.09.38,0.72,0.72,0,0,0,.31,0,0.55,0.55,0,0,0,.42-0.13A1.15,1.15,0,0,0,49,59.71l0.19,0c0,0.17-.12.63-0.16,0.77H46.79V60.33c0.34,0,.37-0.06.37-0.54V58.33c0-.48,0-0.51-0.33-0.53V57.63h1.44V57.8c-0.32,0-.35.06-0.35,0.53v1.52Z" transform="translate(-6.54 -5.43)"/><path class="cls-2" d="M50,60.53l-0.88-2.31c-0.15-.38-0.23-0.4-0.45-0.43V57.63h1.43V57.8l-0.15,0c-0.16,0-.16.06-0.12,0.21s0.43,1.12.59,1.55c0.14-.38.42-1.22,0.49-1.43s0.07-.32-0.13-0.34H50.68V57.63h1.07V57.8c-0.25,0-.31.05-0.49,0.46,0,0.06-.57,1.38-0.9,2.28H50Z" transform="translate(-6.54 -5.43)"/><path class="cls-2" d="M62.25,47.1v0.17c-0.34,0-.36,0-0.34.51l0,1.48c0,0.49,0,.5.34,0.54V50H60.91V49.81c0.33,0,.34,0,0.34-0.54V47.71h0l-0.85,2.22H60.12l-0.81-2.06h0l0,1a4.77,4.77,0,0,0,0,.73c0,0.16.12,0.2,0.4,0.23V50H58.59V49.81c0.21,0,.3-0.06.32-0.23A7.54,7.54,0,0,0,59,48.81l0-.89c0-.56,0-0.61-0.35-0.64V47.1h1l0.78,1.75,0.68-1.75h1.08Z" transform="translate(-6.54 -5.43)"/><path class="cls-2" d="M63.69,49.27c0,0.48,0,.51.34,0.54V50H62.59V49.81c0.31,0,.34-0.06.34-0.54V47.81c0-.48,0-0.51-0.34-0.53V47.1H64v0.17c-0.3,0-.34.06-0.34,0.53v1.46Z" transform="translate(-6.54 -5.43)"/><path class="cls-2" d="M67,50H66.6L65,47.92h0v0.81a7,7,0,0,0,0,.85c0,0.16.14,0.21,0.43,0.23V50h-1.1V49.81a0.28,0.28,0,0,0,.33-0.23,6.72,6.72,0,0,0,0-.85V47.92a0.69,0.69,0,0,0-.1-0.51,0.42,0.42,0,0,0-.33-0.14V47.1h1l1.47,1.84h0V48.35a7.12,7.12,0,0,0,0-.85c0-.15-0.14-0.21-0.43-0.23V47.1h1.13v0.17a0.3,0.3,0,0,0-.36.23,7.16,7.16,0,0,0,0,.85V50Z" transform="translate(-6.54 -5.43)"/><path class="cls-2" d="M68.83,49.81l0.13,0c0.16,0,.17-0.07.11-0.23l-0.16-.45H68.19l-0.13.42c-0.06.19-.06,0.23,0.15,0.26h0.13V50h-1V49.81c0.22,0,.29,0,0.44-0.42l0.88-2.29,0.3-.06,0.3,0.84,0.55,1.5c0.14,0.38.22,0.41,0.44,0.43V50H68.83V49.81Zm-0.56-1h0.57L68.55,48h0Z" transform="translate(-6.54 -5.43)"/><path class="cls-2" d="M62.21,54.58c0,0.48,0,.51.41,0.54v0.17H61.07V55.12c0.35,0,.39-0.06.39-0.54V52.64H61.39a0.6,0.6,0,0,0-.49.13,1.09,1.09,0,0,0-.16.43H60.55c0-.37,0-0.68.05-0.9h0.14a0.21,0.21,0,0,0,.23.11h1.77a0.22,0.22,0,0,0,.21-0.11h0.14c0,0.19,0,.56,0,0.89H62.93a1.08,1.08,0,0,0-.18-0.46,0.6,0.6,0,0,0-.43-0.11H62.21v1.94Z" transform="translate(-6.54 -5.43)"/><path class="cls-2" d="M64.53,54.58c0,0.48,0,.51.34,0.54v0.17H63.44V55.12c0.3,0,.34-0.06.34-0.54V53.12c0-.48,0-0.51-0.34-0.54V52.41h1.43v0.17c-0.31,0-.34.06-0.34,0.54v1.46Z" transform="translate(-6.54 -5.43)"/><path class="cls-2" d="M68.21,53.82a1.45,1.45,0,0,1-1.5,1.54,1.42,1.42,0,0,1-1.47-1.46,1.49,1.49,0,0,1,1.53-1.54A1.4,1.4,0,0,1,68.21,53.82Zm-2.15-.08c0,0.8.3,1.39,0.73,1.39s0.59-.37.59-1.17-0.32-1.38-.7-1.38S66.06,53,66.06,53.74Z" transform="translate(-6.54 -5.43)"/><path class="cls-2" d="M63.52,57.72V57.9c-0.34,0-.35,0-0.34.51l0,1.48c0,0.49,0,.5.34,0.54V60.6H62.18V60.43c0.33,0,.35,0,0.34-0.54V58.33h0l-0.86,2.22H61.4l-0.81-2.06h0l0,1a4.87,4.87,0,0,0,0,.73c0,0.16.11,0.2,0.4,0.23V60.6H59.86V60.43c0.21,0,.3-0.06.32-0.23s0-.37.07-0.77l0-.89c0-.56,0-0.61-0.35-0.64V57.72h1l0.77,1.75,0.68-1.75h1.08Z" transform="translate(-6.54 -5.43)"/><path class="cls-2" d="M64.2,58.43c0-.48,0-0.51-0.33-0.53V57.72H66l0,0.73H65.82a0.81,0.81,0,0,0-.16-0.41,0.63,0.63,0,0,0-.45-0.1H65.13C65,58,65,58,65,58.11V59h0.22c0.38,0,.39,0,0.44-0.36h0.2v1h-0.2c0-.39-0.06-0.42-0.44-0.42H65v0.72a0.4,0.4,0,0,0,.09.38,0.73,0.73,0,0,0,.31,0,0.66,0.66,0,0,0,.47-0.13A1.29,1.29,0,0,0,66,59.78l0.19,0a5.64,5.64,0,0,1-.15.79H63.83V60.43c0.34,0,.37-0.06.37-0.54V58.43Z" transform="translate(-6.54 -5.43)"/><path class="cls-2" d="M67.79,60.43l0.13,0c0.16,0,.17-0.07.11-0.23l-0.16-.45H67.15L67,60.16c-0.06.19-.06,0.23,0.15,0.26h0.13V60.6h-1V60.43c0.23,0,.29,0,0.44-0.42l0.89-2.29,0.31-.06,0.3,0.84L68.74,60c0.14,0.38.22,0.41,0.44,0.43V60.6H67.79V60.43Zm-0.56-1h0.57l-0.28-.84h0Z" transform="translate(-6.54 -5.43)"/><circle class="cls-1" cx="44.05" cy="91.6" r="1.22"/><circle class="cls-1" cx="56.03" cy="93.56" r="1.22"/><path class="cls-1" d="M17.86,32.64h0Z" transform="translate(-6.54 -5.43)"/><path class="cls-1" d="M65.2,19.31h0Z" transform="translate(-6.54 -5.43)"/><path class="cls-1" d="M67.48,11.3h0Z" transform="translate(-6.54 -5.43)"/><path class="cls-1" d="M86.53,34.76h0Z" transform="translate(-6.54 -5.43)"/><path class="cls-1" d="M99.88,61.15h0Z" transform="translate(-6.54 -5.43)"/><path class="cls-1" d="M95.71,73.16h0Z" transform="translate(-6.54 -5.43)"/><path class="cls-1" d="M23.28,74.12a3.18,3.18,0,0,1,2.59,1.53,3.5,3.5,0,0,1,.7,2c0,1.19-.58,1.88-2,2.86l-3.71,2.62-1-1.43L24,78.76a1.77,1.77,0,0,0,.9-1.28,1.48,1.48,0,0,0-.33-1,1.36,1.36,0,0,0-1.19-.68,3.45,3.45,0,0,0-1.75.89l-3.6,2.34-1-1.39,3.82-2.5A4.19,4.19,0,0,1,23.28,74.12Z" transform="translate(-6.54 -5.43)"/><path class="cls-1" d="M16.69,70.73l5.07-2,0.55,1.42-7.66,3-0.54-1.48,4-5L13,68.39l-0.55-1.5,7.73-2.7,0.51,1.4Z" transform="translate(-6.54 -5.43)"/><path class="cls-1" d="M11.18,60.54l8.13-1.24L19.58,61l-8.14,1.24Z" transform="translate(-6.54 -5.43)"/><path class="cls-1" d="M19,53.9l-8.34,2.5,0.07-1.76L17,53l-6.09-2.24L11,49l8.1,3.21Z" transform="translate(-6.54 -5.43)"/><path class="cls-1" d="M11.87,44.54l1.36-4.79,1.35,0.38-0.89,3.13,1.84,0.52,0.84-2.94,1.33,0.38-0.84,2.94,2,0.57,0.92-3.23,1.38,0.39-1.39,4.89Z" transform="translate(-6.54 -5.43)"/><path class="cls-1" d="M24.43,35.31L22,35.09c-1.15-.11-1.27.17-1.59,0.75l-0.1.17,2.89,1.54-0.86,1.52-7.23-4L16.29,33c0.54-1,1.1-2,2.55-2a2.1,2.1,0,0,1,2,2.91,1.63,1.63,0,0,1,1.45-.53c0.3,0,.59,0,0.83.07l2.2,0.19Zm-6.07-2.49a1.71,1.71,0,0,0-.95,1l-0.27.47,2,1.08,0.34-.6a1.38,1.38,0,0,0,.25-1.15,1.29,1.29,0,0,0-.58-0.69A1,1,0,0,0,18.36,32.82Z" transform="translate(-6.54 -5.43)"/><path class="cls-1" d="M28.08,19.11l1.4-1.05,5,6.57L33,25.68Z" transform="translate(-6.54 -5.43)"/><path class="cls-1" d="M37.31,15l3.13,6.06-1.56.8-3.13-6.06-2,1-0.64-1.25,5.56-2.87L39.31,14Z" transform="translate(-6.54 -5.43)"/><path class="cls-1" d="M46.94,15.47l0.79,3.18-1.63.41-0.79-3.19L41.61,11.7l1.72-.43,2.45,2.87,0.83-3.69,1.65-.4Z" transform="translate(-6.54 -5.43)"/><path class="cls-1" d="M76.73,18.42L79.33,20l-0.71,1.19L76,19.61l-1.81,3-1.48-.88,4.21-7.07,4.22,2.51-0.72,1.21-2.73-1.63Z" transform="translate(-6.54 -5.43)"/><path class="cls-1" d="M91.52,45.16l2.25-2.48-3.27-.77L90,40.19l4.86,1.27,3-3.57,0.56,1.8L96.34,42l3,0.73,0.53,1.68-4.52-1.21-3.31,3.76-0.56-1.79h0Z" transform="translate(-6.54 -5.43)"/><path class="cls-1" d="M99.39,51l-1.91.15,0.2,3-1.38.09-0.2-3-3.52.24-0.12-1.65,8.21-.67L101,54.15l-1.4.09L99.39,51h0Z" transform="translate(-6.54 -5.43)"/><path class="cls-1" d="M105.17,55.06a49.34,49.34,0,0,0-83-36.36A49.18,49.18,0,0,0,27.62,95,12.07,12.07,0,0,0,44,103.3c1.58,0.5,3.2.92,4.82,1.26a24.73,24.73,0,0,1-2,4L48,109.78A1.73,1.73,0,0,1,49,109.5a1.69,1.69,0,0,1,1.76,1.73A1.72,1.72,0,0,1,48.85,113a2.28,2.28,0,0,1-2.06-1.39,8.12,8.12,0,0,0-.32,2.21c0,3.66,4,7.69,9.3,9.38,5.35-1.67,9.32-5.72,9.32-9.38a8.12,8.12,0,0,0-.32-2.21A2.28,2.28,0,0,1,62.7,113a1.72,1.72,0,0,1-1.88-1.75,1.69,1.69,0,0,1,1.76-1.73,1.73,1.73,0,0,1,.95.28l1.08-1.08,0,0,0-.06h0v0h0a24.18,24.18,0,0,1-1.2-3.55,36.7,36.7,0,0,0,22.22-11.2h0A48.82,48.82,0,0,0,105.17,55.06ZM39.33,102.58a10.35,10.35,0,0,1-9.06-15.27c0.53,0.48,1.09,1,1.67,1.48a8.11,8.11,0,0,0-.79,3.48,8.35,8.35,0,0,0,4.51,7.39,38.25,38.25,0,0,0,5.71,2.71A10.39,10.39,0,0,1,39.33,102.58Zm16.53-15.1a32.92,32.92,0,0,1-5.69-.5A12.05,12.05,0,0,0,36,80.73,32.78,32.78,0,1,1,55.86,87.48Zm7,0.94a11.82,11.82,0,0,0-1.55,5,51.12,51.12,0,0,1-8.13-2.91,2.53,2.53,0,0,1,2.43-1.34h0.25A34.67,34.67,0,0,0,62.86,88.43ZM52.37,89a3.74,3.74,0,0,0-.68.8c-1.05-.45-3.08-1.4-3.74-1.79A30,30,0,0,0,52.37,89Zm-13-7.07a10.37,10.37,0,0,1,8.58,4.61A32.54,32.54,0,0,1,43,84.87h0l0,0a8.28,8.28,0,0,0-10.22,2.61c-0.63-.35-1.26-0.72-1.87-1.1A10.28,10.28,0,0,1,39.33,81.9ZM62.44,108a3.35,3.35,0,0,0,.11,6.7,3.4,3.4,0,0,0,.7-0.07c-0.57,2.65-3.7,5.52-7.47,6.8-3.71-1.28-6.89-4.15-7.46-6.8a3.4,3.4,0,0,0,.7.07,3.35,3.35,0,0,0,.11-6.7,21.89,21.89,0,0,0,1.42-3.09,38.52,38.52,0,0,0,6.46.59c1.65,0,3.25-.09,4.81-0.24,0.21,0.81.72,2.35,0.85,2.75H62.44ZM57,103.82a43.82,43.82,0,0,1-20.4-5.56,6.85,6.85,0,0,1-3.69-6A6.55,6.55,0,0,1,33.33,90,44.6,44.6,0,0,0,39,94.09a1.58,1.58,0,0,0,.89.26,1.64,1.64,0,0,0,1.64-1.64,1.62,1.62,0,0,0-1-1.53c-1.18-.52-3.63-1.53-6.28-2.9a6.48,6.48,0,0,1,7.92-1.95l1.79,1c5.7,3.48,20.27,12.38,37.92,7.76C75.23,101,67.05,103.82,57,103.82ZM84.58,92.58A38.76,38.76,0,0,1,63,93.79c0.2-2.7,1.21-5.69,2.87-6.14a34.54,34.54,0,1,0-31.77-6.21,12.14,12.14,0,0,0-4.68,4c-0.57-.39-1.11-0.8-1.62-1.22l-0.32.32A21,21,0,0,0,29,86.11a11.84,11.84,0,0,0-1.71,6.13c0,0.15,0,.3,0,0.46A47.57,47.57,0,1,1,84.58,92.58Z" transform="translate(-6.54 -5.43)"/><path class="cls-1" d="M29.57,27.94a3.19,3.19,0,0,1-.92,2.12,4,4,0,0,1-2.57,1.41l-0.36-1.36a3.52,3.52,0,0,0,1.78-1,1.51,1.51,0,0,0,.45-1,0.87,0.87,0,0,0-.88-0.89c-0.72,0-1.91,1-3.14,1a2.08,2.08,0,0,1-1.54-.57A2.3,2.3,0,0,1,21.62,26a3.07,3.07,0,0,1,.89-2,3.79,3.79,0,0,1,2.41-1.3L25.22,24a3.15,3.15,0,0,0-1.6.83,1.48,1.48,0,0,0-.44,1,0.71,0.71,0,0,0,.74.73c0.59,0,2.07-1.07,3.27-1.07a2,2,0,0,1,1.53.62A2.48,2.48,0,0,1,29.57,27.94Z" transform="translate(-6.54 -5.43)"/><path class="cls-1" d="M67.48,19.67a4,4,0,0,1-4-4c0-2.15,1.44-4.64,4.05-4.64a3.93,3.93,0,0,1,4.1,3.92C71.63,16.77,70.4,19.67,67.48,19.67Zm2.39-4.74a2.71,2.71,0,0,0-.47-1.62,2,2,0,0,0-1.64-.81c-1.47,0-2.55,1.83-2.55,3.34a2.2,2.2,0,0,0,2.22,2.36C69.09,18.18,69.87,16,69.87,14.93Z" transform="translate(-6.54 -5.43)"/><path class="cls-1" d="M90.31,37.25a4.1,4.1,0,0,1-3.88-4c0-2.46,2.64-4.33,4.71-4.33A4.13,4.13,0,0,1,95,33C95,35.17,92.73,37.25,90.31,37.25ZM90,35.58c1.45,0,3.45-1.25,3.45-2.93a2,2,0,0,0-2.05-2.06c-1.35,0-3.41,1.2-3.41,2.9A2.07,2.07,0,0,0,90,35.58Z" transform="translate(-6.54 -5.43)"/><path class="cls-1" d="M91.93,61.49a3.9,3.9,0,0,1,4.11-4c2.3,0,4.52,1.42,4.52,4a3.89,3.89,0,0,1-4.06,4.1C94.18,65.53,91.93,64.06,91.93,61.49Zm4.67,2.28a2.29,2.29,0,0,0,2.53-2.2c0-1.56-1.81-2.36-3.21-2.36a2.25,2.25,0,0,0-2.52,2.26C93.4,63.18,95.5,63.77,96.6,63.77Z" transform="translate(-6.54 -5.43)"/><path class="cls-1" d="M88.8,71.19h2.45c1.16,0,1.25-.27,1.52-0.88l0.08-.18-2.94-1.37,0.71-1.56,7.45,3.44-1,2.14C96.46,74.24,95.9,75,94.53,75a2.17,2.17,0,0,1-2.15-2.07,2.51,2.51,0,0,1,.1-0.66c-0.44.76-1.54,0.66-2.23,0.66H88Zm4.77,0.92a1.14,1.14,0,0,0,1.12,1.13,1.26,1.26,0,0,0,1.16-1l0.26-.62-2-1-0.34.76A1.62,1.62,0,0,0,93.57,72.11Z" transform="translate(-6.54 -5.43)"/><path class="cls-1" d="M83.79,80.29c0-1.68.78-2.6,1.77-3.82l1.07-1.31L93,80.36l-1.43,1.76c-0.81,1-1.76,2.22-3.59,2.22a4.22,4.22,0,0,1-2.61-1A4.11,4.11,0,0,1,83.79,80.29Zm4.38,2.41c0.87,0,1.37-.26,2.37-1.49l0.31-.38-4.24-3.45L86.1,78a3,3,0,0,0-.78,1.84A2.74,2.74,0,0,0,86.51,82,2.62,2.62,0,0,0,88.17,82.71Z" transform="translate(-6.54 -5.43)"/></svg>